HIERARCHY
ROOT Hips
{
	OFFSET 0.000000 0.000000 0.000000
	CHANNELS 6 Xposition Yposition Zposition Zrotation Yrotation Xrotation 
	JOINT LHipJoint
	{
		OFFSET 0.000000 0.000000 0.000000
		CHANNELS 3 Zrotation Yrotation Xrotation
		JOINT LeftUpLeg
		{
			OFFSET 1.363060 -1.794630 0.839290
			CHANNELS 3 Zrotation Yrotation Xrotation
			JOINT LeftLeg
			{
				OFFSET 2.448110 -6.726130 0.000000
				CHANNELS 3 Zrotation Yrotation Xrotation
				JOINT LeftFoot
				{
					OFFSET 2.562200 -7.039590 0.000000
					CHANNELS 3 Zrotation Yrotation Xrotation
					JOINT LeftToeBase
					{
						OFFSET 0.157640 -0.433110 2.322550
						CHANNELS 3 Zrotation Yrotation Xrotation
						End Site
						{
							OFFSET 0.000000 0.000000 0.000000
						}
					}
				}
			}
		}
	}
	JOINT RHipJoint
	{
		OFFSET 0.000000 0.000000 0.000000
		CHANNELS 3 Zrotation Yrotation Xrotation
		JOINT RightUpLeg
		{
			OFFSET -1.305520 -1.794630 0.839290
			CHANNELS 3 Zrotation Yrotation Xrotation
			JOINT RightLeg
			{
				OFFSET -2.542530 -6.985550 0.000000
				CHANNELS 3 Zrotation Yrotation Xrotation
				JOINT RightFoot
				{
					OFFSET -2.568260 -7.056230 0.000000
					CHANNELS 3 Zrotation Yrotation Xrotation
					JOINT RightToeBase
					{
						OFFSET -0.164730 -0.452590 2.363150
						CHANNELS 3 Zrotation Yrotation Xrotation
						End Site
						{
							OFFSET 0.000000 0.000000 0.000000
						}
					}
				}
			}
		}
	}
	JOINT LowerBack
	{
		OFFSET 0.000000 0.000000 0.000000
		CHANNELS 3 Zrotation Yrotation Xrotation
		JOINT Spine
		{
			OFFSET 0.028270 2.035590 -0.193380
			CHANNELS 3 Zrotation Yrotation Xrotation
			JOINT Spine1
			{
				OFFSET 0.056720 2.048850 -0.042750
				CHANNELS 3 Zrotation Yrotation Xrotation
				JOINT Neck
				{
					OFFSET 0.000000 0.000000 0.000000
					CHANNELS 3 Zrotation Yrotation Xrotation
					JOINT Neck1
					{
						OFFSET -0.054170 1.746240 0.172020
						CHANNELS 3 Zrotation Yrotation Xrotation
						JOINT Head
						{
							OFFSET 0.104070 1.761360 -0.123970
							CHANNELS 3 Zrotation Yrotation Xrotation
							End Site
							{
								OFFSET 0.000000 0.000000 0.000000
							}
						}
					}
				}
				JOINT LeftShoulder
				{
					OFFSET 0.000000 0.000000 0.000000
					CHANNELS 3 Zrotation Yrotation Xrotation
					JOINT LeftArm
					{
						OFFSET 3.362410 1.200890 -0.311210
						CHANNELS 3 Zrotation Yrotation Xrotation
						JOINT LeftForeArm
						{
							OFFSET 4.983000 -0.000000 -0.000000
							CHANNELS 3 Zrotation Yrotation Xrotation
							JOINT LeftHand
							{
								OFFSET 3.483560 -0.000000 -0.000000
								CHANNELS 3 Zrotation Yrotation Xrotation
								JOINT LeftFingerBase
								{
									OFFSET 0.000000 0.000000 0.000000
									CHANNELS 3 Zrotation Yrotation Xrotation
									JOINT LeftHandIndex1
									{
										OFFSET 0.715260 -0.000000 -0.000000
										CHANNELS 3 Zrotation Yrotation Xrotation
										End Site
										{
											OFFSET 0.000000 0.000000 0.000000
										}
									}
								}
								JOINT LThumb
								{
									OFFSET 0.000000 0.000000 0.000000
									CHANNELS 3 Zrotation Yrotation Xrotation
									End Site
									{
										OFFSET 0.000000 0.000000 0.000000
									}
								}
							}
						}
					}
				}
				JOINT RightShoulder
				{
					OFFSET 0.000000 0.000000 0.000000
					CHANNELS 3 Zrotation Yrotation Xrotation
					JOINT RightArm
					{
						OFFSET -3.136600 1.374050 -0.404650
						CHANNELS 3 Zrotation Yrotation Xrotation
						JOINT RightForeArm
						{
							OFFSET -5.241900 -0.000000 -0.000000
							CHANNELS 3 Zrotation Yrotation Xrotation
							JOINT RightHand
							{
								OFFSET -3.444170 -0.000000 -0.000000
								CHANNELS 3 Zrotation Yrotation Xrotation
								JOINT RightFingerBase
								{
									OFFSET 0.000000 0.000000 0.000000
									CHANNELS 3 Zrotation Yrotation Xrotation
									JOINT RightHandIndex1
									{
										OFFSET -0.622530 -0.000000 -0.000000
										CHANNELS 3 Zrotation Yrotation Xrotation
										End Site
										{
											OFFSET 0.000000 0.000000 0.000000
										}
									}
								}
								JOINT RThumb
								{
									OFFSET 0.000000 0.000000 0.000000
									CHANNELS 3 Zrotation Yrotation Xrotation
									End Site
									{
										OFFSET 0.000000 0.000000 0.000000
									}
								}
							}
						}
					}
				}
			}
		}
	}
}
MOTION
Frames: 5
Frame Time: 0.008333
15.484294 17.304308 -46.689383 1.307825 3.899932 26.889591 -2.568402 -5.203496 -6.094986 -9.763647 -0.741077 -60.686223 8.177514 18.407008 55.897845 4.720251 -16.153684 11.957292 0.009700 -0.636600 -1.749500 5.684670 0.971775 3.777592 19.884552 2.920357 -7.037020 -8.167188 -15.526696 49.637584 -0.792791 -15.619635 39.080194 -1.193900 6.933400 -19.518200 2.811813 1.370112 18.454371 -0.469084 1.953206 -4.069504 -2.788668 1.167480 -7.342952 -3.634373 -5.891468 -15.497087 6.243433 -7.451057 -5.456049 1.942900 -3.707100 2.177500 3.660579 -2.849239 0.438871 -85.732586 44.143805 33.428515 103.453273 -60.257810 -75.230011 -0.208652 -0.347286 -16.019034 22.604141 -9.690600 -3.935300 -7.125000 0.000000 0.000000 -2.893100 19.828400 1.742400 -5.450991 3.291223 0.217175 82.049140 -4.098897 37.237873 -104.976523 58.288587 -78.360795 1.141000 0.096845 -11.390776 -18.336181 6.941554 -2.480900 7.125000 0.000000 0.000000 5.350100 -22.528900 2.904200 
15.466378 17.274799 -46.163793 2.507473 4.577769 26.490072 -3.013278 -5.247957 -5.738531 -11.035367 -0.931783 -58.125451 8.192153 18.267195 55.689307 4.764702 -14.942972 9.102007 0.000800 0.183700 0.504700 5.457757 1.235938 3.332959 19.329600 2.085580 -9.625045 -9.861244 -16.513802 55.401480 -0.133656 -14.779062 35.748892 -0.939600 6.174100 -17.290500 2.075116 1.073329 18.877649 -0.590432 1.429284 -4.051566 -2.685702 0.913839 -7.534272 -3.705354 -6.012456 -15.292594 6.426266 -7.583220 -5.538538 2.032100 -3.763600 2.125200 3.542025 -2.912218 0.499478 -86.293089 41.379164 34.024922 102.482851 -60.107583 -74.448418 -0.214685 -0.347455 -15.717402 22.291060 -9.795033 -3.919300 -7.125000 0.000000 0.000000 -3.116900 19.739100 1.883800 -5.388602 3.347424 0.161594 83.882783 -5.720197 36.289487 -96.203002 58.780330 -71.394074 1.166064 0.221951 -12.356551 -18.420846 6.596200 -2.341600 7.125000 0.000000 0.000000 5.256400 -22.994000 2.796800 
15.451201 17.230429 -45.648110 3.549130 5.226825 26.194241 -3.413995 -5.251109 -5.383489 -12.191794 -1.013785 -55.916875 8.246492 18.141354 55.593596 5.107710 -15.254254 6.038956 0.024500 1.009900 2.776100 5.236609 1.477749 2.892870 18.738840 1.442213 -12.423760 -11.540437 -17.362166 61.223390 0.016419 -13.005560 33.470764 -0.815700 5.763200 -16.098900 1.480014 0.750669 19.279549 -0.678442 0.902121 -4.065477 -2.506503 0.655847 -7.804472 -3.936061 -6.047488 -15.237046 6.601776 -7.568854 -5.536710 2.158200 -3.742200 2.168200 3.434393 -3.004569 0.552743 -87.106776 38.491796 34.570282 101.335677 -59.953802 -73.501731 -0.240060 -0.346071 -15.612450 22.498019 -9.762712 -3.952900 -7.125000 0.000000 0.000000 -2.951400 19.749600 1.782800 -5.314246 3.425373 0.051073 85.622685 -7.258607 35.451537 -86.835963 58.358415 -63.586715 1.170370 0.328979 -13.146254 -18.374213 6.175188 -2.159200 7.125000 0.000000 0.000000 5.276300 -23.532600 2.742000 
15.434233 17.172674 -45.146866 4.787535 6.153671 25.925744 -3.848359 -5.235864 -5.017760 -13.303356 -1.392807 -53.696127 8.318120 18.029252 55.553948 5.292818 -14.820369 3.211789 0.033800 1.186200 3.261200 5.041754 1.704574 2.461028 17.974124 0.605877 -15.453889 -13.191891 -18.051487 66.859832 0.242481 -11.368001 30.579759 -0.946100 6.194900 -17.351000 0.858867 0.305143 19.783288 -0.747219 0.204756 -4.069280 -2.241709 0.319328 -8.114979 -4.165175 -6.063783 -15.121956 6.758745 -7.534422 -5.606993 2.272500 -3.714700 2.157500 3.333309 -3.109695 0.602102 -87.850220 35.451327 35.226465 100.127561 -59.794748 -72.493008 -0.271082 -0.346008 -15.780310 22.856415 -9.706079 -4.007100 -7.125000 0.000000 0.000000 -2.671800 19.772800 1.612200 -5.231204 3.513795 -0.082800 87.336367 -8.575369 34.290343 -77.467610 57.166704 -55.294778 1.188629 0.403477 -13.764315 -18.857498 5.836571 -2.077300 7.125000 0.000000 0.000000 4.897000 -23.930800 2.498400 
15.422113 17.168458 -44.629286 6.149128 6.462000 25.983393 -4.267752 -5.187045 -4.627525 -14.220998 -1.840663 -51.535070 8.311789 17.887168 55.389123 5.468714 -14.664517 1.286678 0.006600 0.525500 1.444000 4.828136 1.937878 1.941973 16.445520 0.340798 -19.051851 -14.777400 -18.585277 72.050238 0.402061 -9.942083 27.899567 -1.380200 7.434000 -21.007600 -0.280424 -0.032961 19.873183 -0.790687 -0.442747 -4.067603 -1.653553 0.029496 -8.157068 -4.229838 -5.938162 -15.210944 6.684914 -7.369371 -5.683840 2.206700 -3.645400 2.109900 3.280969 -3.220771 0.638940 -89.060142 31.791421 35.654793 98.840281 -59.608572 -71.383805 -0.291694 -0.339408 -16.649983 22.500736 -9.777399 -3.980200 -7.125000 0.000000 0.000000 -2.913300 19.701700 1.762900 -5.116938 3.563276 -0.203165 88.399564 -9.914362 33.303530 -68.771904 55.552211 -47.276705 1.240761 0.392263 -13.737020 -19.788458 6.296873 -2.370100 7.125000 0.000000 0.000000 4.168100 -23.383300 2.177100 
